<svg xmlns="http://www.w3.org/2000/svg" width="960" height="240" viewBox="0 0 960 240">
  <metadata><?xpacket begin="﻿" id="W5M0MpCehiHzreSzNTczkc9d"?>
<x:xmpmeta xmlns:x="adobe:ns:meta/" x:xmptk="Adobe XMP Core 5.6-c138 79.159824, 2016/09/14-01:09:01        ">
   <rdf:RDF xmlns:rdf="http://www.w3.org/1999/02/22-rdf-syntax-ns#">
      <rdf:Description rdf:about=""/>
   </rdf:RDF>
</x:xmpmeta>
                                                                                                    
                                                                                                    
                                                                                                    
                                                                                                    
                                                                                                    
                                                                                                    
                                                                                                    
                                                                                                    
                                                                                                    
                                                                                                    
                                                                                                    
                                                                                                    
                                                                                                    
                                                                                                    
                                                                                                    
                                                                                                    
                                                                                                    
                                                                                                    
                                                                                                    
                                                                                                    
                           
<?xpacket end="w"?></metadata>
<defs>
    <style>
      .cls-1 {
        fill-rule: evenodd;
      }
    </style>
  </defs>
  <path id="cifangbifang_plus" class="cls-1" d="M985.969,406.082l-1.045,9.945a6,6,0,0,1-6.594,5.34L867,409.666V435h68a6,6,0,0,1,6,6V587a6,6,0,0,1-6,6H925a6,6,0,0,1-6-6V457H867V587a6,6,0,0,1-6,6H851a6,6,0,0,1-6-6V407.354l-55.629-5.847a6,6,0,0,1-5.34-6.6l1.045-9.945a6,6,0,0,1,6.594-5.34L845,385.232V359a6,6,0,0,1,6-6h10a6,6,0,0,1,6,6v28.545l113.629,11.943A6,6,0,0,1,985.969,406.082ZM733,593H723a6,6,0,0,1-5.372-3.34L625,489.166V587a6,6,0,0,1-6,6H609a6,6,0,0,1-6-6V437.382l-19-2V587a6,6,0,0,1-6,6H568a6,6,0,0,1-6-6V433.073l-19.629-2.063a6,6,0,0,1-5.34-6.595l1.045-9.945a6,6,0,0,1,6.594-5.34L603,415.261V391H543a6,6,0,0,1-6-6V375a6,6,0,0,1,6-6H657V359a6,6,0,0,1,6-6h10a6,6,0,0,1,6,6v10h54a6,6,0,0,1,6,6V587A6,6,0,0,1,733,593ZM625,391v26.573l32,3.363V391H625Zm92,0H679v32.249l38,3.994V391Zm0,58.364-92-9.67v17.011l92,99.813V449.364ZM470.629,404.01L357,415.952V435h68a6,6,0,0,1,6,6V587a6,6,0,0,1-6,6H415a6,6,0,0,1-6-6V457H357V587a6,6,0,0,1-6,6H341a6,6,0,0,1-6-6V418.265l-53.33,5.605a6,6,0,0,1-6.594-5.34l-1.045-9.945a6,6,0,0,1,5.34-6.595L335,396.144V359a6,6,0,0,1,6-6h10a6,6,0,0,1,6,6v34.831l111.33-11.7a6,6,0,0,1,6.594,5.34l1.045,9.945A6,6,0,0,1,470.629,404.01ZM222.03,592.863H173.266A6,6,0,0,1,172,593H162a6,6,0,0,1-1.266-.137H100.266A6,6,0,0,1,99,593H89a6,6,0,0,1-1.266-.137H43.266A6,6,0,0,1,42,593H32a6,6,0,0,1-6-6V415a6,6,0,0,1,6-6H42a6,6,0,0,1,6,6V570.917H83V359a6,6,0,0,1,6-6H99a6,6,0,0,1,6,6v38.642l51-5.361V359a6,6,0,0,1,6-6h10a6,6,0,0,1,6,6v30.969l41.764-4.39a6,6,0,0,1,6.595,5.34l1.045,9.946a6,6,0,0,1-5.34,6.594L178,412.09V570.917h44.03a6,6,0,0,1,6,6v9.946A6,6,0,0,1,222.03,592.863ZM156,414.4l-51,5.36V570.917h51V414.4Z" transform="translate(-26 -353)"/>
</svg>
